<?xml version="1.0" encoding="utf-8"?>
<!-- Generator: Adobe Illustrator 22.0.1, SVG Export Plug-In . SVG Version: 6.00 Build 0)  -->
<svg version="1.1" id="Layer_1" xmlns="http://www.w3.org/2000/svg" xmlns:xlink="http://www.w3.org/1999/xlink" x="0px" y="0px"
	 viewBox="0 0 1330.8 413.8" style="enable-background:new 0 0 1330.8 413.8;" xml:space="preserve">
<style type="text/css">
	.st0{fill:#FFFFFF;}
	.st1{fill:#FF9800;}
	.st2{fill:#EE8700;}
	.st3{fill:#EEEEEE;}
</style>
<g>
	<path class="st0" d="M562.4,150.6h-66.5v58h76.5v10.2h-88.5V76.6h88v10.2h-76v53.7h66.5V150.6z"/>
	<path class="st0" d="M625.3,202.7l32.1-89.6h12L630,218.8h-9.5l-39.6-105.7h12L625.3,202.7z"/>
	<path class="st0" d="M728.2,220.7c-9,0-17.1-2.2-24.4-6.6c-7.3-4.4-12.9-10.6-16.9-18.5c-4-7.9-6.1-16.8-6.1-26.6v-4.2
		c0-10.2,2-19.3,5.9-27.4c3.9-8.1,9.4-14.5,16.5-19.2c7-4.7,14.6-7,22.9-7c12.8,0,23,4.4,30.5,13.1c7.5,8.8,11.3,20.7,11.3,35.9v6.5
		h-75.4v2.2c0,12,3.4,22,10.3,29.9c6.9,8,15.5,12,25.9,12c6.3,0,11.8-1.1,16.6-3.4c4.8-2.3,9.1-5.9,13-10.9l7.3,5.6
		C757.1,214.5,744.6,220.7,728.2,220.7z M726.1,121.1c-8.8,0-16.2,3.2-22.2,9.7c-6,6.4-9.7,15.1-11,26h63.4v-1.3
		c-0.3-10.2-3.2-18.4-8.7-24.8C742.1,124.3,734.9,121.1,726.1,121.1z"/>
	<path class="st0" d="M801.8,113.1l0.4,18.1c4-6.5,8.9-11.5,14.8-14.9c5.9-3.4,12.5-5.1,19.6-5.1c11.3,0,19.8,3.2,25.3,9.6
		c5.5,6.4,8.3,16,8.4,28.7v69.3h-11.6v-69.4c-0.1-9.4-2.1-16.5-6-21.1c-3.9-4.6-10.2-6.9-18.9-6.9c-7.2,0-13.6,2.3-19.2,6.8
		c-5.6,4.5-9.7,10.6-12.4,18.3v72.4h-11.6V113.1H801.8z"/>
	<path class="st0" d="M918.7,86.1v27.1h21.9v9.6h-21.9v70.5c0,5.9,1.1,10.2,3.2,13.1c2.1,2.9,5.6,4.3,10.6,4.3c2,0,5.1-0.3,9.5-1
		l0.5,9.5c-3.1,1.1-7.2,1.6-12.5,1.6c-8,0-13.8-2.3-17.5-7c-3.6-4.7-5.5-11.5-5.5-20.6v-70.5h-19.4v-9.6H907V86.1H918.7z"/>
	<path class="st0" d="M964.1,82.6c0-2.2,0.7-4.1,2.1-5.6c1.4-1.5,3.4-2.3,5.9-2.3c2.5,0,4.4,0.8,5.9,2.3c1.5,1.5,2.2,3.4,2.2,5.6
		s-0.7,4-2.2,5.5c-1.5,1.5-3.4,2.2-5.9,2.2c-2.5,0-4.4-0.7-5.9-2.2C964.8,86.6,964.1,84.8,964.1,82.6z M977.9,218.8h-11.7V113.1
		h11.7V218.8z"/>
	<path class="st0" d="M1018,218.8v-96.1h-17.5v-9.6h17.5v-12.8c0-10.8,2.8-19.1,8.3-24.9c5.5-5.8,13.2-8.7,23-8.7
		c4.4,0,8.6,0.5,12.4,1.6l-0.9,9.7c-3.3-0.8-6.8-1.2-10.6-1.2c-6.4,0-11.5,2-15,6c-3.6,4-5.4,9.7-5.4,17.1v13.1h25.2v9.6h-25.2v96.1
		H1018z"/>
	<path class="st0" d="M1109.3,202l30.9-88.9h12.6l-45.1,123.6l-2.3,5.5c-5.8,12.8-14.7,19.2-26.9,19.2c-2.8,0-5.8-0.5-9-1.4
		l-0.1-9.7l6.1,0.6c5.7,0,10.4-1.4,13.9-4.2c3.5-2.8,6.6-7.7,9-14.6l5.2-14.3l-39.8-104.8h12.8L1109.3,202z"/>
</g>
<g>
	<polygon class="st1" points="207.1,204.8 207.1,76.2 405.9,6 335.6,204.8 	"/>
	<polygon class="st2" points="207.1,204.8 207.1,76.2 405.9,6 	"/>
	<polygon class="st3" points="207.1,204.8 207.1,333.3 405.9,403.6 335.6,204.8 	"/>
	<polygon class="st0" points="207.1,204.8 207.1,333.3 405.9,403.6 	"/>
	<polygon class="st3" points="207.1,204.8 207.1,76.2 8.3,6 78.5,204.8 	"/>
	<polygon class="st0" points="207.1,204.8 207.1,76.2 8.3,6 	"/>
	<polygon class="st0" points="207.1,204.8 207.1,333.3 8.3,403.6 78.5,204.8 	"/>
	<polygon class="st3" points="207.1,204.8 207.1,333.3 8.3,403.6 	"/>
</g>
<g>
	<path class="st0" d="M533.8,296.2l6.8-37.4h14.3l-12.7,59.7h-14.9l-8-34l-7.8,34h-14.9l-12.7-59.7h14.3l6.8,37.4l8.2-37.4h12.2
		L533.8,296.2z"/>
	<path class="st0" d="M592.7,307.3H573l-3.4,11.2h-15.4l21.9-59.7h13.5l22.1,59.7h-15.5L592.7,307.3z M576.4,296.2h12.8l-6.4-20.7
		L576.4,296.2z"/>
	<path class="st0" d="M632.5,281l8-2.2v7.2l-8,2.2v19.2h25.1v11.1h-39.5v-26.3l-5.6,1.5v-7.2l5.6-1.5v-26.2h14.4V281z"/>
	<path class="st0" d="M663.6,318.5v-59.7H685c7.7,0,13.5,1.4,17.5,4.2c4,2.8,6,6.9,6,12.3c0,3.1-0.7,5.7-2.1,7.9
		c-1.4,2.2-3.5,3.8-6.3,4.8c3.1,0.8,5.5,2.4,7.2,4.6c1.7,2.2,2.5,5,2.5,8.2c0,5.9-1.9,10.2-5.6,13.2c-3.7,2.9-9.2,4.4-16.5,4.5
		H663.6z M678,283.6h7.5c3.1,0,5.4-0.6,6.7-1.7s2-2.8,2-5c0-2.5-0.7-4.3-2.2-5.5c-1.4-1.1-3.8-1.7-7-1.7H678V283.6z M678,293.1v14.3
		h9.4c2.6,0,4.6-0.6,6-1.8s2.1-2.9,2.1-5c0-5-2.5-7.5-7.4-7.5H678z"/>
	<path class="st0" d="M739.9,297.3h-7.8v21.1h-14.4v-59.7h23.5c7.1,0,12.6,1.6,16.6,4.7s6,7.6,6,13.3c0,4.2-0.8,7.6-2.5,10.3
		s-4.3,4.9-7.9,6.6l12.5,24.1v0.6h-15.4L739.9,297.3z M732.2,286.3h9.1c2.7,0,4.8-0.7,6.2-2.2c1.4-1.4,2.1-3.4,2.1-6
		c0-2.6-0.7-4.6-2.1-6.1s-3.4-2.2-6.2-2.2h-9.1V286.3z"/>
	<path class="st0" d="M788.7,307.4h28.5v11.1h-46.5v-7.6l28.5-41h-28.6v-11.1H817v7.4L788.7,307.4z"/>
	<path class="st0" d="M845.6,284.7l11-25.9h15.5L852.9,297v21.5h-14.6V297l-19.2-38.3h15.5L845.6,284.7z"/>
	<path class="st0" d="M923.7,298.2c-0.2,4.2-1.3,7.8-3.4,11c-2.1,3.2-4.9,5.7-8.6,7.4c-3.7,1.8-7.9,2.6-12.7,2.6
		c-7.8,0-14-2.6-18.5-7.7c-4.5-5.1-6.8-12.3-6.8-21.7v-3c0-5.9,1-11,3.1-15.4s5-7.8,8.8-10.2c3.8-2.4,8.3-3.6,13.3-3.6
		c7.2,0,13.1,1.9,17.5,5.7s6.9,9.1,7.5,15.8h-14.4c-0.1-3.6-1-6.2-2.7-7.8c-1.7-1.6-4.3-2.4-7.9-2.4c-3.6,0-6.2,1.3-7.9,4
		c-1.7,2.7-2.5,7-2.6,12.8v4.2c0,6.4,0.8,10.9,2.4,13.7c1.6,2.7,4.4,4.1,8.3,4.1c3.3,0,5.8-0.8,7.6-2.3s2.7-4,2.8-7.4H923.7z"/>
	<path class="st0" d="M980.4,318.5h-14.3v-24.9h-21.2v24.9h-14.4v-59.7h14.4v23.7h21.2v-23.7h14.3V318.5z"/>
</g>
</svg>
